<?xml version="1.0" encoding="iso-8859-1"?>
<!-- Generator: Adobe Illustrator 16.0.0, SVG Export Plug-In . SVG Version: 6.00 Build 0)  -->
<!DOCTYPE svg PUBLIC "-//W3C//DTD SVG 1.1//EN" "http://www.w3.org/Graphics/SVG/1.1/DTD/svg11.dtd">
<svg version="1.1" id="Layer_1" xmlns="http://www.w3.org/2000/svg" xmlns:xlink="http://www.w3.org/1999/xlink" x="0px" y="0px"
	 width="431.625px" height="108.273px" viewBox="0 0 431.625 108.273" style="enable-background:new 0 0 431.625 108.273;"
	 xml:space="preserve">
<style type="text/css">
<![CDATA[
	.st0{fill:#896BDE;}
]]>
</style>
<g>
	<path class="st0" d="M5.919,0.452h2.05c1.669,0,3.071,0.526,4.211,1.581c1.138,1.055,1.708,2.446,1.708,4.177v83.887
		c0,1.581,0.582,2.953,1.75,4.121c1.166,1.166,2.541,1.75,4.121,1.75h34.209c1.581,0,2.953,0.564,4.121,1.693
		c1.166,1.129,1.75,2.483,1.75,4.063c0,1.655-0.584,3.049-1.75,4.178c-1.168,1.13-2.541,1.693-4.121,1.693H5.919
		c-1.669,0-3.073-0.563-4.211-1.693C0.568,104.774,0,103.381,0,101.726V6.209c0-1.73,0.568-3.123,1.708-4.177
		C2.846,0.979,4.25,0.452,5.919,0.452z"/>
	<path class="st0" d="M89.871,7.338v93.484c0,1.881-0.678,3.5-2.032,4.854c-1.355,1.354-3.012,2.032-4.968,2.032
		c-1.958,0-3.632-0.678-5.024-2.032c-1.394-1.354-2.089-2.975-2.089-4.854V7.338c0-1.956,0.695-3.593,2.089-4.911
		c1.392-1.316,3.066-1.976,5.024-1.976c1.956,0,3.613,0.659,4.968,1.976C89.193,3.745,89.871,5.382,89.871,7.338z"/>
	<path class="st0" d="M105.789,97.097c0.452-1.656,1.448-2.861,2.992-3.613c1.542-0.753,3.105-0.828,4.686-0.226
		c2.784,1.129,5.702,2.05,8.75,2.767c3.048,0.715,6.266,1.072,9.653,1.072c7.074,0,12.532-1.637,16.371-4.911
		c3.838-3.273,5.758-7.584,5.758-12.928c0-4.892-1.563-8.9-4.686-12.024c-3.124-3.123-8.186-6.041-15.186-8.75
		c-4.29-1.505-8.129-3.218-11.516-5.137c-3.387-1.919-6.285-4.082-8.693-6.492c-2.41-2.407-4.253-5.118-5.532-8.129
		c-1.281-3.009-1.919-6.358-1.919-10.048c0-4.063,0.808-7.847,2.427-11.347c1.618-3.5,3.913-6.511,6.887-9.032
		c2.973-2.521,6.548-4.516,10.726-5.984c4.177-1.468,8.824-2.202,13.943-2.202c3.613,0,6.905,0.286,9.879,0.855
		c2.973,0.57,5.626,1.272,7.96,2.108c1.504,0.532,2.577,1.521,3.218,2.965c0.639,1.444,0.695,2.888,0.169,4.331
		c-0.603,1.515-1.581,2.648-2.935,3.4c-1.355,0.753-2.786,0.829-4.291,0.227c-1.958-0.679-4.16-1.224-6.605-1.638
		c-2.447-0.412-5.1-0.62-7.959-0.62c-3.539,0-6.568,0.471-9.089,1.409c-2.522,0.94-4.572,2.163-6.153,3.666
		s-2.729,3.176-3.443,5.018c-0.716,1.842-1.073,3.666-1.073,5.47c0,2.48,0.396,4.661,1.186,6.54c0.791,1.881,2.032,3.59,3.726,5.132
		c1.693,1.542,3.856,2.989,6.492,4.342c2.634,1.354,5.758,2.708,9.371,4.06c4.44,1.729,8.335,3.61,11.686,5.64
		c3.348,2.031,6.134,4.269,8.354,6.711c2.22,2.443,3.896,5.188,5.024,8.231c1.128,3.044,1.693,6.447,1.693,10.205
		c0,4.06-0.753,7.893-2.258,11.504c-1.506,3.606-3.782,6.803-6.831,9.584c-3.048,2.78-6.85,4.979-11.403,6.599
		c-4.555,1.614-9.918,2.424-16.089,2.424c-3.915,0-7.829-0.357-11.742-1.072c-3.915-0.717-7.339-1.75-10.274-3.104
		c-1.431-0.527-2.484-1.45-3.161-2.767C105.224,100.013,105.186,98.602,105.789,97.097z"/>
	<path class="st0" d="M205.03,78.468l-8.129,24.726c-0.527,1.43-1.375,2.559-2.541,3.388c-1.167,0.828-2.503,1.242-4.008,1.242
		c-1.129,0-2.165-0.266-3.105-0.79c-0.942-0.527-1.713-1.226-2.314-2.09c-0.604-0.865-1.016-1.825-1.242-2.879
		c-0.226-1.055-0.151-2.146,0.226-3.273L215.869,4.63c0.525-1.429,1.41-2.558,2.652-3.387C219.764,0.415,221.1,0,222.529,0h7.113
		c1.43,0,2.729,0.415,3.896,1.242c1.166,0.828,1.977,1.958,2.427,3.387l32.291,94.161c0.3,1.129,0.356,2.22,0.169,3.273
		c-0.189,1.054-0.584,2.014-1.186,2.879c-0.604,0.864-1.375,1.562-2.314,2.09c-0.941,0.524-1.976,0.79-3.105,0.79h-0.451
		c-1.506,0-2.861-0.414-4.064-1.242c-1.205-0.829-1.994-1.958-2.371-3.388l-8.58-24.726c-0.453-1.354-1.262-2.445-2.428-3.274
		c-1.168-0.826-2.466-1.241-3.896-1.241h-28.564c-1.506,0-2.823,0.415-3.952,1.241C206.385,76.022,205.556,77.113,205.03,78.468z
		 M232.465,62.887c1.129,0,2.182-0.244,3.161-0.734c0.978-0.488,1.769-1.167,2.371-2.031c0.603-0.865,0.997-1.845,1.187-2.937
		c0.187-1.09,0.094-2.202-0.283-3.331l-7.451-21.79c-1.281-3.687-2.334-7.13-3.161-10.331c-0.829-3.197-1.657-6.379-2.483-9.541
		h-0.34c-0.753,3.237-1.6,6.455-2.54,9.653c-0.942,3.2-1.938,6.492-2.991,9.879l-7.453,22.129c-0.452,1.129-0.584,2.241-0.395,3.331
		c0.187,1.092,0.602,2.071,1.242,2.937c0.639,0.865,1.448,1.543,2.428,2.031c0.977,0.49,2.032,0.734,3.161,0.734L232.465,62.887
		L232.465,62.887z"/>
	<path class="st0" d="M347.673,0.452h2.05c1.669,0,3.071,0.526,4.211,1.581c1.139,1.055,1.708,2.446,1.708,4.177v83.887
		c0,1.581,0.582,2.953,1.75,4.121c1.166,1.166,2.541,1.75,4.121,1.75h34.209c1.581,0,2.953,0.564,4.121,1.693
		c1.166,1.129,1.75,2.483,1.75,4.063c0,1.655-0.584,3.049-1.75,4.178c-1.168,1.13-2.541,1.693-4.121,1.693h-48.049
		c-1.669,0-3.073-0.563-4.211-1.693c-1.14-1.129-1.708-2.521-1.708-4.178V6.209c0-1.73,0.568-3.123,1.708-4.177
		C344.6,0.979,346.004,0.452,347.673,0.452z"/>
	<path class="st0" d="M431.625,7.338v93.484c0,1.881-0.678,3.5-2.032,4.854s-3.012,2.032-4.968,2.032
		c-1.958,0-3.632-0.678-5.024-2.032c-1.394-1.354-2.089-2.975-2.089-4.854V7.338c0-1.956,0.695-3.593,2.089-4.911
		c1.393-1.316,3.066-1.976,5.024-1.976c1.956,0,3.613,0.659,4.968,1.976C430.947,3.745,431.625,5.382,431.625,7.338z"/>
</g>
</svg>
