<?xml version="1.0" encoding="iso-8859-1"?>
<!-- Generator: Adobe Illustrator 16.0.0, SVG Export Plug-In . SVG Version: 6.00 Build 0)  -->
<!DOCTYPE svg PUBLIC "-//W3C//DTD SVG 1.1//EN" "http://www.w3.org/Graphics/SVG/1.1/DTD/svg11.dtd">
<svg version="1.1" id="Layer_1" xmlns="http://www.w3.org/2000/svg" xmlns:xlink="http://www.w3.org/1999/xlink" x="0px" y="0px"
	 width="800px" height="800px" viewBox="0 0 800 800" style="enable-background:new 0 0 800 800;" xml:space="preserve">
<style type="text/css">
<![CDATA[
	.st0{fill:#FFFFFF;}
]]>
</style>
<path d="M357.834,113.048c-107.159,0-194.029,79.523-194.029,159.46c0,79.939,86.87,130.022,194.029,130.022
	c107.157,0,194.026-50.083,194.026-130.022C551.86,192.571,464.991,113.048,357.834,113.048z M357.834,395.147
	c-101.694,0-184.132-47.527-184.132-123.39c0-75.86,82.438-151.326,184.132-151.326c101.691,0,184.129,75.466,184.129,151.326
	C541.963,347.621,459.525,395.147,357.834,395.147z"/>
<path class="st0" d="M357.834,120.431c-101.694,0-184.132,75.466-184.132,151.326c0,75.863,82.438,123.39,184.132,123.39
	c101.691,0,184.129-47.527,184.129-123.39C541.963,195.897,459.525,120.431,357.834,120.431z"/>
<path d="M395.781,313.767c-10.598,0-35.185-22.437-35.185-22.437h-0.053c0,0-24.585,22.437-35.184,22.437
	s16.065,14.867,24.542,14.867h10.564h9.982C378.927,328.634,406.379,313.767,395.781,313.767z M360.479,322.636
	c-8.101,0-18.414-3.9-21.921-5.699c10.584-3.479,21.968-15.891,21.968-15.891h0.033c0,0,8.02,8.212,21.697,15.891
	C379.378,318.497,368.579,322.636,360.479,322.636z"/>
<path d="M237.589,149.772c-1.476-4.738-4.379-9.454-9.051-14.126c-19.734-19.735-45.976-13.981-65.709,5.753
	c-19.735,19.734-25.488,45.974-5.754,65.709c7.15,7.151,14.403,10.185,21.683,10.228
	C191.551,191.574,211.947,168.073,237.589,149.772z"/>
<path d="M254.35,619.661c1.042-1.502,4.418-5.26,4.418-10.099s-3.366-15.989-15.568-15.989s-15.147,9.888-15.147,15.147
	s2.804,8.034,4.418,10.099C242.787,616.53,243.323,616.614,254.35,619.661z"/>
<path d="M552.836,141.399c-19.734-19.734-45.973-25.488-65.709-5.753c-4.672,4.672-7.575,9.388-9.051,14.126
	c25.643,18.301,46.04,41.802,58.831,67.565c7.279-0.043,14.532-3.077,21.683-10.228
	C578.326,187.375,572.571,161.133,552.836,141.399z"/>
<path d="M315.636,246.903c-5.519,25.685-17.316,41.486-43.582,51.807c-28.257,11.104-70.325,6.726-70.347-28.732
	c-0.021-35.683,19.576-59.371,49.34-65.363C280.809,198.623,323.133,212.017,315.636,246.903z"/>
<path d="M398.428,246.903c5.52,25.685,17.316,41.486,43.582,51.807c28.257,11.104,70.324,6.726,70.347-28.732
	c0.021-35.683-19.577-59.371-49.34-65.363C433.254,198.623,390.932,212.017,398.428,246.903z"/>
<path d="M345.129,271.336c0-5.057,6.675-4.924,14.651-4.924c7.976,0,14.232-0.133,14.232,4.924c0,5.059-10.368,8.971-14.232,8.971
	C355.918,280.308,345.129,276.395,345.129,271.336z"/>
<path d="M223.673,478.028c-1.973-3.986-4.667-7.427-8.051-10.261c-3.67-2.937-8.405-5.198-14.075-6.722
	c-5.551-1.49-12.165-2.246-19.659-2.246c-4.386,0-8.446,0.095-12.072,0.28c-3.574,0.186-6.953,0.392-10.042,0.613l-0.308,0.041
	c-2.384,0.473-4.371,1.543-5.908,3.18c-1.621,1.729-2.442,3.796-2.442,6.142v90.4c0,2.608,0.999,4.896,2.89,6.613
	c1.85,1.683,4.179,2.535,6.922,2.535c2.636,0,4.947-0.837,6.869-2.488c2.005-1.721,3.064-4.024,3.064-6.66v-27.363
	c0-1.197,0.448-2.151,1.412-3.003c1.006-0.892,2.151-1.253,3.591-1.149l4.318,0.006c7.538,0,14.537-1.009,20.803-2.998
	c6.388-2.026,11.694-5.163,15.775-9.323c6.579-5.855,9.915-13.92,9.915-23.97C226.675,486.638,225.665,482.053,223.673,478.028z
	 M206.686,492.099c0,6.543-2.167,11.362-6.626,14.734c-4.609,3.487-11.215,5.256-19.635,5.256h-2.62
	c-0.722,0-1.464-0.063-2.205-0.188l-0.235-0.028c-1.412-0.103-2.499-0.563-3.326-1.413c-0.804-0.823-1.178-1.694-1.178-2.74v-28.914
	c0-1.182,0.367-2.099,1.153-2.883c0.812-0.809,1.882-1.26,3.271-1.377c1.017-0.003,2.141-0.041,3.34-0.113
	c1.196-0.071,2.417-0.107,3.629-0.107c7.649,0,13.773,1.548,18.201,4.6C204.647,481.815,206.686,486.125,206.686,492.099z"/>
<path d="M335.412,556.871l-34.891-92.513c-0.672-1.934-1.891-3.481-3.627-4.605c-1.665-1.073-3.535-1.617-5.559-1.617h-7.678
	c-1.999,0-3.891,0.532-5.624,1.582c-1.807,1.098-3.113,2.619-3.908,4.587l-34.492,92.405c-0.576,1.568-0.688,3.133-0.33,4.648
	c0.324,1.378,0.927,2.647,1.787,3.771c0.876,1.146,2.003,2.074,3.353,2.762c1.367,0.694,2.876,1.046,4.483,1.046
	c2.104,0,4.016-0.544,5.685-1.62c1.692-1.095,2.938-2.603,3.734-4.572l8.749-24.189c0.374-0.85,0.945-1.523,1.742-2.056
	c0.807-0.537,1.748-0.799,2.879-0.799h30.831c1.062,0,1.994,0.269,2.846,0.817c0.812,0.525,1.33,1.152,1.643,2.006l9.229,24.173
	c0.593,1.954,1.804,3.515,3.603,4.641c1.696,1.062,3.619,1.6,5.713,1.6h0.488c1.605,0,3.113-0.352,4.486-1.049
	c1.346-0.686,2.472-1.614,3.349-2.759c0.881-1.153,1.469-2.451,1.748-3.866C335.928,559.836,335.848,558.358,335.412,556.871z
	 M299.177,516.283c-0.131,0.688-0.396,1.287-0.808,1.825c-0.401,0.523-0.928,0.93-1.61,1.24c-0.731,0.332-1.509,0.494-2.377,0.494
	h-14.623c-0.869,0-1.646-0.161-2.378-0.495c-0.707-0.321-1.268-0.744-1.715-1.296c-0.43-0.527-0.698-1.105-0.824-1.771
	c-0.108-0.564-0.023-1.15,0.259-1.792l8.12-21.913c1.146-3.349,2.236-6.623,3.243-9.733c0.189-0.585,0.375-1.172,0.559-1.761
	c0.148,0.521,0.297,1.043,0.446,1.565c0.911,3.202,2.082,6.683,3.477,10.332l8.036,21.364
	C299.23,515.023,299.295,515.658,299.177,516.283z"/>
<path d="M438.329,461.364c-1.846-1.628-4.083-2.453-6.649-2.453c-2.649,0-4.928,0.825-6.771,2.452
	c-1.909,1.684-2.918,3.845-2.917,6.306l0.163,55.823l-49.662-60.54c-1.17-1.844-3.521-4.041-8.081-4.041h-5.118
	c-2.568,0-4.807,0.825-6.65,2.453c-1.909,1.684-2.918,3.846-2.918,6.252v91.951c0,2.462,0.999,4.672,2.891,6.394
	c1.851,1.681,4.097,2.532,6.678,2.532c2.513,0,4.707-0.86,6.524-2.561c1.832-1.719,2.8-3.92,2.8-6.399l-0.036-56.279l50.969,60.939
	c0.815,1.439,1.983,2.539,3.477,3.271c1.396,0.683,2.873,1.029,4.389,1.029h4.265c2.579,0,4.825-0.852,6.68-2.534
	c1.89-1.722,2.889-3.932,2.889-6.392v-91.951C441.248,465.211,440.239,463.05,438.329,461.364z"/>
<path d="M546.241,488.071c-2.908-6.377-7.116-11.858-12.508-16.294c-5.359-4.408-12.018-7.772-19.788-10
	c-7.669-2.196-17.044-3.31-27.864-3.31c-3.069,0-6.134,0.057-9.112,0.168c-2.937,0.111-5.901,0.32-8.75,0.615
	c-2.239,0.172-4.326,0.692-6.203,1.546c-1.878,0.853-3.551,1.983-4.973,3.362c-1.445,1.401-2.592,3.042-3.407,4.876
	c-0.831,1.866-1.252,3.848-1.252,5.892v77.439c0,2.127,0.446,4.174,1.326,6.087c0.864,1.876,2.057,3.536,3.546,4.933
	c1.464,1.372,3.201,2.499,5.168,3.352c1.987,0.858,4.134,1.337,6.295,1.417c2.088,0.151,4.219,0.228,6.334,0.228h6.52
	c11.234,0,21.353-1.301,30.075-3.867c8.868-2.611,16.135-6.532,21.542-11.604c5.62-4.953,9.979-11.054,12.96-18.132
	c2.96-7.037,4.461-15.061,4.461-23.847C550.61,502.123,549.141,494.432,546.241,488.071z M530.133,511.265
	c0,13.311-3.89,23.631-11.56,30.674c-7.732,7.099-19.238,10.697-34.198,10.697h-0.244c-1.707,0-3.327-0.296-4.812-0.879
	c-1.497-0.589-2.798-1.379-3.864-2.348c-1.052-0.956-1.903-2.111-2.531-3.435c-0.615-1.296-0.915-2.647-0.915-4.134v-56.943
	c0-1.478,0.296-2.805,0.906-4.058c0.641-1.32,1.494-2.499,2.537-3.508c1.027-0.995,2.287-1.812,3.741-2.428
	c1.45-0.611,3.006-0.956,4.623-1.022h2.753c7.502,0,14.109,0.91,19.641,2.704c5.439,1.764,9.992,4.288,13.53,7.503
	c3.507,3.189,6.157,7.098,7.876,11.613C529.361,500.293,530.209,505.519,530.133,511.265z"/>
<path d="M659.412,556.871l-34.891-92.513c-0.672-1.934-1.891-3.481-3.627-4.605c-1.665-1.073-3.535-1.617-5.559-1.617h-7.678
	c-1.999,0-3.891,0.532-5.624,1.582c-1.807,1.098-3.113,2.619-3.908,4.587l-34.492,92.405c-0.576,1.568-0.688,3.133-0.33,4.648
	c0.324,1.378,0.927,2.647,1.787,3.771c0.876,1.146,2.003,2.074,3.353,2.762c1.367,0.694,2.876,1.046,4.483,1.046
	c2.104,0,4.016-0.544,5.685-1.62c1.692-1.095,2.938-2.603,3.734-4.572l8.749-24.189c0.374-0.85,0.945-1.523,1.742-2.056
	c0.807-0.537,1.748-0.799,2.879-0.799h30.831c1.062,0,1.994,0.269,2.846,0.817c0.812,0.525,1.33,1.152,1.643,2.006l9.229,24.173
	c0.593,1.954,1.804,3.515,3.603,4.641c1.696,1.062,3.619,1.6,5.713,1.6h0.488c1.605,0,3.113-0.352,4.486-1.049
	c1.346-0.686,2.472-1.614,3.349-2.759c0.881-1.153,1.469-2.451,1.748-3.866C659.928,559.836,659.848,558.358,659.412,556.871z
	 M623.177,516.283c-0.131,0.688-0.396,1.287-0.808,1.825c-0.401,0.523-0.928,0.93-1.61,1.24c-0.731,0.332-1.509,0.494-2.377,0.494
	h-14.623c-0.869,0-1.646-0.161-2.378-0.495c-0.707-0.321-1.268-0.744-1.715-1.296c-0.43-0.527-0.698-1.105-0.824-1.771
	c-0.108-0.564-0.023-1.15,0.259-1.792l8.12-21.913c1.146-3.349,2.236-6.623,3.243-9.733c0.189-0.585,0.375-1.172,0.559-1.761
	c0.148,0.521,0.297,1.043,0.446,1.565c0.911,3.202,2.082,6.683,3.477,10.332l8.036,21.364
	C623.23,515.023,623.295,515.658,623.177,516.283z"/>
<path d="M217.964,687.529c-1.725-1.516-3.776-2.284-6.098-2.284h-36.925c-1.087,0-1.966-0.339-2.768-1.067
	c-0.739-0.672-1.069-1.348-1.069-2.192v-82.314c0-2.425-0.945-4.503-2.733-6.01c-1.687-1.421-3.758-2.141-6.155-2.141h-2.213
	c-2.398,0-4.47,0.721-6.155,2.141c-1.787,1.505-2.732,3.583-2.732,6.01v93.725c0,2.324,0.923,4.384,2.669,5.956
	c1.697,1.53,3.789,2.306,6.219,2.306h51.863c2.321,0,4.373-0.769,6.1-2.285c1.791-1.575,2.737-3.643,2.737-5.977
	C220.703,691.137,219.757,689.109,217.964,687.529z"/>
<path d="M250.432,628.93c-1.928-1.702-4.289-2.565-7.018-2.565c-2.715,0-5.088,0.855-7.053,2.544
	c-2.044,1.757-3.124,4.079-3.124,6.716v56.887c0,2.549,1.071,4.844,3.099,6.637c1.968,1.739,4.35,2.621,7.078,2.621
	c2.742,0,5.112-0.89,7.045-2.645c1.97-1.793,3.011-4.079,3.011-6.613v-56.887C253.47,633.003,252.42,630.688,250.432,628.93z"/>
<path d="M335.614,659.318c-1.338-3.281-3.347-6.275-5.969-8.899c-2.552-2.552-5.774-4.91-9.581-7.009
	c-3.725-2.05-8.093-3.968-13.014-5.71c-3.8-1.292-7.117-2.598-9.863-3.883c-2.635-1.229-4.812-2.547-6.471-3.921
	c-1.528-1.264-2.654-2.663-3.346-4.158c-0.695-1.503-1.048-3.309-1.048-5.368c0-1.426,0.321-2.9,0.956-4.386
	c0.617-1.444,1.645-2.795,3.054-4.013c1.453-1.258,3.407-2.308,5.808-3.12c2.45-0.83,5.481-1.251,9.009-1.251
	c2.945,0,5.708,0.195,8.211,0.58c2.48,0.382,4.738,0.888,6.712,1.505c2.245,0.8,4.502,0.678,6.556-0.359
	c1.985-1.003,3.442-2.539,4.361-4.64c0.826-2.062,0.738-4.23-0.257-6.276c-0.984-2.017-2.697-3.466-4.945-4.19
	c-2.619-0.853-5.625-1.578-8.937-2.154c-3.345-0.582-7.076-0.877-11.092-0.877c-5.756,0-11.075,0.767-15.812,2.279
	c-4.767,1.523-8.919,3.635-12.342,6.274c-3.491,2.691-6.229,5.957-8.136,9.707c-1.919,3.771-2.892,7.899-2.892,12.269
	c0,3.975,0.776,7.648,2.307,10.917c1.516,3.246,3.722,6.196,6.554,8.769c2.748,2.5,6.086,4.769,9.922,6.744
	c3.77,1.94,8.081,3.69,12.745,5.177c7.201,2.533,12.43,5.251,15.539,8.077c2.852,2.594,4.238,5.848,4.238,9.949
	c0,4.468-1.716,7.971-5.247,10.708c-3.676,2.851-9.105,4.296-16.138,4.296c-3.461,0-6.791-0.336-9.897-0.997
	c-3.166-0.677-6.229-1.558-9.147-2.633c-2.295-0.794-4.662-0.69-6.888,0.298c-2.273,1.005-3.849,2.72-4.566,4.966
	c-0.904,2.15-0.804,4.309,0.295,6.253c1.026,1.812,2.607,3.097,4.7,3.819c3.316,1.383,7.207,2.45,11.567,3.174
	c4.343,0.722,8.744,1.087,13.083,1.087c6.884,0,12.984-0.841,18.134-2.5c5.195-1.677,9.615-4.007,13.137-6.928
	c3.563-2.956,6.271-6.417,8.049-10.287c1.769-3.859,2.665-8.008,2.665-12.33C337.628,666.281,336.95,662.594,335.614,659.318z"/>
<path d="M446.412,689.814L411.521,597.3c-0.672-1.935-1.892-3.483-3.627-4.604c-1.665-1.073-3.535-1.617-5.559-1.617h-7.678
	c-1.999,0-3.891,0.532-5.622,1.581c-1.808,1.095-3.115,2.616-3.91,4.586l-34.492,92.407c-0.576,1.568-0.688,3.132-0.33,4.646
	c0.324,1.379,0.926,2.649,1.789,3.775c0.876,1.144,2.003,2.071,3.351,2.758c1.367,0.694,2.876,1.046,4.483,1.046
	c2.104,0,4.016-0.544,5.682-1.618c1.693-1.093,2.939-2.602,3.737-4.572l8.749-24.189c0.375-0.852,0.945-1.524,1.742-2.056
	c0.807-0.537,1.748-0.799,2.879-0.799h30.831c1.062,0,1.994,0.269,2.849,0.819c0.798,0.515,1.331,1.16,1.64,2.004l9.229,24.173
	c0.593,1.956,1.805,3.516,3.603,4.639c1.696,1.062,3.619,1.6,5.713,1.6h0.488c1.605,0,3.113-0.352,4.486-1.049
	c1.344-0.685,2.47-1.611,3.349-2.757c0.881-1.153,1.469-2.452,1.748-3.868C446.928,692.778,446.848,691.301,446.412,689.814z
	 M410.177,649.226c-0.131,0.689-0.396,1.287-0.808,1.824c-0.402,0.525-0.929,0.931-1.613,1.241
	c-0.729,0.333-1.506,0.495-2.374,0.495h-14.623c-0.869,0-1.646-0.162-2.382-0.498c-0.703-0.318-1.262-0.741-1.713-1.297
	c-0.428-0.524-0.696-1.102-0.822-1.77c-0.108-0.564-0.023-1.15,0.259-1.792l8.12-21.911c1.138-3.326,2.229-6.602,3.243-9.735
	c0.189-0.585,0.375-1.172,0.558-1.76c0.149,0.521,0.298,1.044,0.447,1.566c0.911,3.2,2.082,6.681,3.477,10.332l8.036,21.362
	C410.23,647.965,410.295,648.6,410.177,649.226z"/>
</svg>
