<?xml version="1.0" encoding="utf-8"?>
<!-- Generator: Adobe Illustrator 16.0.0, SVG Export Plug-In . SVG Version: 6.00 Build 0)  -->
<!DOCTYPE svg PUBLIC "-//W3C//DTD SVG 1.1//EN" "http://www.w3.org/Graphics/SVG/1.1/DTD/svg11.dtd">
<svg version="1.1" id="panda" xmlns="http://www.w3.org/2000/svg" xmlns:xlink="http://www.w3.org/1999/xlink" x="0px" y="0px"
	 width="800px" height="800px" viewBox="0 0 800 800" enable-background="new 0 0 800 800" xml:space="preserve">
<g id="bottom">
	<path id="leg-right" fill="#231F20" d="M299.394,581.609c0,0-3.78,16.297-4.029,35.312c-0.227,17.387,6.715,74.454,11.192,85.514
		c21.491,17.867,73.451,21.18,84.177,9.36c11.191-12.337-2.688-52.708-2.688-62.965c0-10.523,2.013-26.814,5.036-34.254
		c-19.78-9.994-33.003-17.062-48.156-23.195C320.496,581.489,299.394,581.609,299.394,581.609z">
		
		<animateTransform 
			dur="2s"
			attributeName="transform" 
			repeatCount="3" 
			type="scale" 
			from="1" 
			to="1.5"/> 
		
		</path>
	<path id="leg-left" fill="#231F20" d="M500.605,581.609c0,0,3.78,16.297,4.029,35.312c0.228,17.387-6.717,74.454-11.191,85.514
		c-21.49,17.867-73.455,21.18-84.177,9.36c-11.192-12.337,2.687-52.708,2.687-62.965c0-10.523-2.013-26.814-5.035-34.254
		c19.779-9.994,33.002-17.062,48.156-23.195C479.507,581.489,500.605,581.609,500.605,581.609z"/>
	<path id="hand-left" fill="#231F20" d="M440.255,481.272c0,0,59.64,38.448,100.275,39.854c43.801,1.515,76.248-19.017,87.92-28.1
		c11.673-9.084,21.366-19.631,16.794-38.82c-4.57-19.189-18.776-29.517-30.02-28.862c-11.24,0.656-20.049,5.979-29.19,11.348
		c-6.669,3.909-53.566,10.755-92.954,4.637C482.626,439.707,440.255,481.272,440.255,481.272z"/>
	<path id="hand-right" fill="#231F20" d="M335.178,426.677c0,0-66.972,23.451-93.038,54.658
		c-28.096,33.636-31.821,71.853-31.821,86.642c0,14.791,2.368,28.918,20.321,37.098c17.951,8.178,34.827,3.311,41.213-5.963
		c6.387-9.275,7.596-19.494,8.975-30.008c1.011-7.666,24.412-48.879,53.431-76.203C341.958,485.644,335.178,426.677,335.178,426.677
		z"/>
	<g id="belly">
		<path fill="#231F20" d="M490.052,464.214c-6.499-10.811-14.948-17.396-21.424-21.191c-21.82,3.835-44.837,5.821-68.627,5.821
			c-23.789,0-46.807-1.986-68.63-5.824c-6.471,3.798-14.923,10.385-21.422,21.194c-12.179,20.264-20.511,80.092-15.052,103.008
			c10.055,42.216,32.323,50.098,50.283,55.16c17.958,5.069,50.892,6.238,54.362,6.264c3.47,0.023,37.321-1.192,55.279-6.264
			c17.957-5.062,40.227-12.944,50.28-55.16C510.562,544.306,502.229,484.478,490.052,464.214z M493.153,570.312
			c-8.911,30.766-28.648,36.508-44.565,40.198c-15.916,3.697-45.918,4.585-48.995,4.566c-3.078-0.021-32.265-0.869-48.182-4.566
			c-15.916-3.69-35.653-9.435-44.564-40.198c-4.839-16.705,2.545-74.596,13.343-89.364c10.793-14.771,27.68-4.446,27.68-4.446
			s24.259,13.25,52.934,13.25c28.674,0,51.329-13.25,51.329-13.25s16.885-10.324,27.685,4.446
			C490.607,495.718,497.992,553.606,493.153,570.312z"/>
		<path fill="#FFFFFF" d="M452.131,476.501c0,0-22.655,13.25-51.329,13.25c-28.675,0-52.934-13.25-52.934-13.25
			s-16.886-10.324-27.68,4.446c-10.797,14.771-18.182,72.659-13.343,89.362c8.911,30.768,28.648,36.51,44.564,40.2
			c15.917,3.697,45.104,4.547,48.182,4.566c3.077,0.019,33.079-0.869,48.995-4.566c15.917-3.69,35.654-9.435,44.565-40.2
			c4.839-16.703-2.546-74.594-13.342-89.362C469.016,466.177,452.131,476.501,452.131,476.501z"/>
	</g>
</g>
<g id="top">
	<g id="face">
		<path id="face-line" fill="#231F20" d="M400.001,81.248c-139.396,0-252.401,103.447-252.401,207.434
			c0,103.989,113.005,169.139,252.401,169.139c139.396,0,252.399-65.15,252.399-169.139
			C652.4,184.694,539.396,81.248,400.001,81.248z M400.001,448.216c-132.288,0-239.526-61.825-239.526-160.511
			c0-98.683,107.238-196.853,239.526-196.853c132.285,0,239.524,98.17,239.524,196.853
			C639.525,386.391,532.286,448.216,400.001,448.216z"/>
		<path id="face-bg" fill="#FFFFFF" d="M400.001,90.852c-132.288,0-239.526,98.17-239.526,196.853
			c0,98.686,107.238,160.511,239.526,160.511c132.285,0,239.524-61.825,239.524-160.511
			C639.525,189.022,532.286,90.852,400.001,90.852z"/>
	</g>
	<path id="mouth" fill="#231F20" d="M449.365,342.352c-13.785,0-45.771-29.187-45.771-29.187h-0.067c0,0-31.982,29.187-45.77,29.187
		c-13.788,0,20.898,19.34,31.926,19.34h13.742h12.986C427.44,361.691,463.151,342.352,449.365,342.352z M403.443,353.89
		c-10.538,0-23.954-5.073-28.519-7.414c13.771-4.526,28.577-20.671,28.577-20.671h0.043c0,0,10.433,10.683,28.227,20.671
		C428.027,348.505,413.979,353.89,403.443,353.89z"/>
	<path id="ear-right" fill="#231F20" d="M243.582,129.02c-1.919-6.164-5.696-12.298-11.774-18.376
		C206.136,84.972,172,92.457,146.33,118.128c-25.673,25.671-33.156,59.805-7.485,85.478c9.302,9.303,18.737,13.25,28.207,13.305
		C183.692,183.397,210.226,152.826,243.582,129.02z"/>
	<path id="ear-left" fill="#231F20" d="M653.67,118.128c-25.672-25.671-59.805-33.155-85.478-7.484
		c-6.077,6.078-9.855,12.212-11.774,18.376c33.356,23.806,59.891,54.377,76.531,87.891c9.468-0.056,18.901-4.002,28.205-13.305
		C686.827,177.936,679.342,143.799,653.67,118.128z"/>
	<path id="eye-right" fill="#231F20" d="M345.108,255.373c-7.18,33.412-22.526,53.967-56.694,67.393
		c-36.758,14.444-91.482,8.749-91.51-37.377c-0.029-46.417,25.466-77.231,64.183-85.026
		C299.804,192.566,354.86,209.992,345.108,255.373z"/>
	<path id="eye-left" fill="#231F20" d="M452.808,255.373c7.182,33.412,22.526,53.967,56.692,67.393
		c36.76,14.444,91.482,8.749,91.512-37.377c0.028-46.417-25.467-77.231-64.185-85.026
		C498.11,192.566,443.057,209.992,452.808,255.373z"/>
	<path id="nose" fill="#231F20" d="M383.475,287.157c0-6.579,8.685-6.405,19.061-6.405s18.515-0.173,18.515,6.405
		c0,6.581-13.485,11.67-18.515,11.67C397.51,298.827,383.475,293.737,383.475,287.157z"/>
</g>
</svg>
